<?xml version="1.0" encoding="UTF-8"?>
<svg xmlns="http://www.w3.org/2000/svg" version="1.1" viewBox="0 0 80 56.75">
  <defs>
    <style>
      .cls-1 {
        fill: none;
      }
    </style>
  </defs>
  <!-- Generator: Adobe Illustrator 28.7.1, SVG Export Plug-In . SVG Version: 1.2.0 Build 142)  -->
  <g>
    <g id="Layer_1">
      <g id="Layer_1-2" data-name="Layer_1">
        <g>
          <path class="cls-1" d="M60.23,13.22c-.93-.81-2.14-1.44-3.64-1.91s-3.34-.7-5.52-.7h-7.16v16.82h7.37c1.98,0,3.69-.19,5.16-.56,1.46-.38,2.66-.91,3.61-1.59.95-.68,1.65-1.5,2.11-2.46.46-.96.69-2.01.69-3.15,0-1.29-.2-2.48-.61-3.58s-1.07-2.05-2-2.86h0Z"/>
          <path d="M70.91,33.96c-.45-1.13-1.09-2.12-1.91-2.97s-1.82-1.54-2.98-2.09-2.47-.94-3.92-1.16v-.12c1.45-.69,2.65-1.37,3.59-2.03s1.71-1.37,2.28-2.11c.57-.74.97-1.56,1.19-2.43.23-.88.34-1.88.34-3,0-1.47-.36-2.81-1.07-4.04-.71-1.22-1.72-2.27-3.01-3.15s-2.85-1.56-4.65-2.03-3.79-.72-5.95-.72h-16.33v37.93h-20.24V8.1h-6.82v40.55h45.99c2.16,0,4.11-.28,5.86-.86,1.75-.57,3.23-1.35,4.47-2.34s2.18-2.15,2.85-3.49c.66-1.33.99-2.77.99-4.3,0-1.34-.23-2.58-.67-3.72h0ZM45.31,10.79h5.63c2.04,0,3.79.18,5.25.55s2.66.9,3.61,1.59c.95.69,1.65,1.52,2.09,2.49s.67,2.04.67,3.23c0,1.1-.19,2.12-.56,3.07s-.93,1.76-1.67,2.45c-.73.68-1.63,1.22-2.69,1.61-1.06.39-2.27.58-3.64.58h-8.69v-15.58h0ZM63.55,41.07c-.46.96-1.16,1.78-2.11,2.46-.95.68-2.15,1.21-3.61,1.59-1.46.38-3.18.56-5.16.56h-7.37v-16.82h7.16c2.18,0,4.02.23,5.52.7s2.71,1.11,3.64,1.91,1.6,1.76,2,2.86.61,2.3.61,3.58c0,1.14-.23,2.19-.69,3.15h0Z"/>
        </g>
      </g>
    </g>
  </g>
</svg>